PathFileType	4	(X/Y/Z)	C:/Users/beibeiliu/ov580/test_trc/User3\sequence.35_training_dense_left.trc
DataRate	CameraRate	NumFrames	NumMarkers	Units	OrigDataRate	OrigDataStartFrame	OrigNumFrames
120	120	13	19	mm	120	201	267
Frame#	Time	ThumbCMC			ThumbMCP			ThumbIP			ThumbTip			IndexMCP			IndexPIP			IndexTip			MiddleMCP			MiddlePIP			MiddleTip			RingMCP			RingPIP			RingTip			PinkyMCP			PinkyPIP			PinkyTip			BackHand1			BackHand2			BackHand3	
		X0	Y0	Z0	X1	Y1	Z1	X2	Y2	Z2	X3	Y3	Z3	X4	Y4	Z4	X5	Y5	Z5	X6	Y6	Z6	X7	Y7	Z7	X8	Y8	Z8	X9	Y9	Z9	X10	Y10	Z10	X11	Y11	Z11	X12	Y12	Z12	X13	Y13	Z13	X14	Y14	Z14	X15	Y15	Z15	X16	Y16	Z16	X17	Y17	Z17	X18	Y18	Z18	
200	1.66667	-166.001	-31.4867	-5.66204	-152.369	-40.0343	-29.962	-137.506	-48.3266	-54.8769	-135.685	-55.6239	-75.6266	-189.909	-5.74674	-76.7833	-186.383	-4.41458	-102.138	-187.31	-10.4019	-131.067	-213.5	-15.0654	-79.8399	-210.664	-40.6486	-108.166	-212.147	-74.5267	-93.3554	-226.713	-28.6239	-70.0633	-230.043	-58.126	-82.5351	-215.841	-75.1555	-54.5939	-243.793	-38.6419	-56.3471	-238.485	-65.5926	-61.4619	-224.253	-75.6763	-34.1244	-225.6	-6.37713	-18.3431	-225.211	-7.04687	11.8484	-193.176	-4.47816	-5.93442	
201	1.675	-158.107	-42.1896	-4.43823	-141.419	-53.8318	-23.3476	-130.913	-61.5541	-47.9477	-125.771	-70.7927	-69.2461	-176.182	-16.0852	-74.3928	-172.011	-13.6429	-105.974	-170.513	-19.3716	-128.551	-196.935	-22.1855	-83.7338	-200.622	-50.5073	-106.327	-203.504	-82.2215	-88.3789	-220.72	-35.7113	-75.413	-222.615	-67.2337	-79.5191	-212.634	-79.2856	-48.6288	-236.636	-42.4992	-61.0547	-231.799	-72.5213	-61.0127	-220.673	-76.6507	-35.0889	-215.392	-9.4178	-24.9903	-213.418	-11.0822	10.3947	-181.917	-11.8264	-6.24495	
202	1.68333	-151.412	-52.8346	2.05217	-139.08	-63.7575	-24.8835	-124.259	-75.4301	-45.9542	-115.306	-87.3374	-64.4155	-157.242	-26.6409	-71.0597	-149.876	-23.9109	-102.828	-151.636	-30.5056	-127.1	-180.965	-31.8007	-82.5088	-184.053	-61.6313	-105.769	-194.568	-88.7419	-83.5371	-201.667	-42.8326	-76.0411	-206.866	-71.9046	-83.0767	-203.466	-85.3738	-51.8248	-222.298	-48.8619	-65.4279	-222.232	-73.9198	-65.3479	-212.994	-81.7865	-35.7712	-200.512	-16.0232	-27.1843	-202.481	-14.2498	5.80549	-171.461	-21.4282	-10.7623	
203	1.69167	-141.612	-61.064	1.69963	-126.6	-77.3878	-20.4626	-113.373	-90.6044	-41.8653	-111.529	-99.8465	-60.544	-143.274	-34.3497	-69.7729	-131.105	-34.8072	-96.6641	-132.168	-45.0799	-124.324	-166.139	-40.6164	-81.1131	-168.467	-69.8188	-101.903	-177.617	-96.2608	-75.6376	-191.021	-48.884	-75.1842	-194.205	-81.7746	-77.7161	-194.655	-89.0903	-44.7616	-208.45	-49.7763	-63.6756	-208.006	-79.5139	-64.2028	-201.517	-83.493	-37.7461	-190.268	-20.1266	-28.3464	-196.702	-17.9192	5.66209	-157.081	-29.2618	-8.05622	
204	1.7	-137.862	-67.2386	5.07973	-121.268	-85.6222	-15.5725	-112.85	-99.456	-35.2456	-108.426	-111.073	-60.8887	-122.896	-44.1139	-68.5103	-118.341	-48.4295	-97.2792	-117.647	-69.0056	-119.793	-152.925	-48.4304	-80.105	-156.077	-76.7078	-97.7016	-170.844	-99.2957	-68.305	-172.848	-55.5371	-73.7745	-181.676	-87.204	-74.1831	-184.232	-92.1101	-44.4316	-194.628	-53.6059	-65.0453	-196.187	-82.667	-63.5223	-193.008	-85.0515	-33.462	-173.406	-24.6821	-25.7695	-181.516	-23.4067	4.92219	-148	-33.4286	-3.59338	
205	1.70833	-128.183	-74.8515	9.20495	-117.8	-92.065	-10.5357	-108.618	-103.929	-39.5859	-108.482	-114.182	-61.1753	-113.417	-53.9955	-61.641	-102.001	-67.6638	-91.5624	-110.533	-91.8832	-107.006	-136.034	-58.0123	-76.0872	-146.068	-87.6507	-90.2746	-160.397	-103.06	-55.2956	-163.023	-62.7606	-74.6945	-172.381	-92.4943	-69.7795	-170.419	-95.4027	-39.1997	-179.163	-61.5919	-67.5714	-183.961	-86.9072	-60.0832	-178.166	-86.997	-31.9076	-161.328	-26.8908	-25.1437	-176.663	-25.2479	4.25832	-140.291	-38.0452	-1.07629	
206	1.71667	-124.56	-78.658	10.1993	-113.769	-94.9946	-12.0745	-107.516	-104.033	-40.0614	-109.256	-110.156	-67.6674	-105.762	-61.7587	-61.3386	-98.062	-84.4821	-87.6539	-109.861	-111.357	-92.9032	-126.012	-66.5539	-72.8886	-139.226	-95.4587	-81.1367	-149.904	-104.1	-45.1503	-152.266	-65.2612	-69.1588	-160.794	-96.2682	-65.0064	-162.939	-90.7627	-30.6083	-170.071	-61.6338	-62.383	-172.297	-89.4972	-55.7053	-166.575	-82.8428	-24.7571	-150.747	-30.467	-23.2078	-167.849	-27.3679	7.6721	-129.025	-44.114	0.746179	
207	1.725	-121.556	-80.4391	13.893	-108.597	-96.2796	-11.5219	-100.928	-101.636	-42.1903	-105.278	-104.835	-66.8892	-96.4271	-65.9401	-59.6008	-93.2341	-88.0105	-81.4602	-108.421	-114.161	-83.3489	-120.124	-68.2354	-69.8737	-131.298	-97.7794	-75.2321	-145.547	-100.663	-36.94	-139.681	-68.6052	-65.6447	-155.757	-93.8049	-61.763	-154.378	-91.0205	-29.0629	-163.773	-63.8084	-63.2391	-167.887	-89.4504	-52.6623	-164.798	-77.2083	-23.1306	-144.258	-32.1466	-19.4087	-158.515	-28.7245	7.81943	-125.782	-45.4531	7.39857	
208	1.73333	-118.981	-80.6512	15.8901	-104.836	-90.2478	-12.2506	-95.3691	-96.8814	-42.3424	-103.559	-94.519	-69.9114	-94.2278	-60.4557	-57.9626	-88.6554	-84.2928	-81.3158	-105.211	-109.282	-82.3392	-115.645	-62.019	-66.3544	-125.989	-94.2609	-70.9641	-141.433	-93.1304	-32.3322	-138.783	-61.5792	-64.6534	-147.357	-92.405	-55.8721	-149.468	-84.0287	-23.9485	-153.081	-60.0592	-61.0888	-160.042	-84.9976	-48.5862	-160.553	-75.765	-24.0545	-141.834	-29.9761	-15.4931	-157.629	-28.9708	11.1843	-123.71	-43.4459	8.15792	
209	1.74167	-116.935	-74.9103	15.4974	-100.727	-85.2692	-8.86893	-91.7802	-85.7571	-43.4818	-99.7751	-83.8278	-66.1287	-92.3526	-49.7136	-52.8977	-89.5255	-69.5598	-80.9003	-104.642	-97.8972	-83.123	-115.713	-53.1428	-65.8465	-125.38	-86.7624	-70.1632	-134.527	-88.7606	-30.7639	-133.894	-54.6712	-61.8248	-144.032	-85.2537	-57.6871	-146.05	-77.5438	-22.5168	-154.799	-53.4409	-60.3546	-161.23	-78.345	-49.1774	-158.657	-65.7192	-20.2993	-142.567	-22.7234	-14.6724	-153.613	-26.3136	10.8166	-123.821	-37.0545	11.5438	
210	1.75	-114.618	-63.231	14.0468	-99.2483	-73.06	-9.8181	-91.6522	-72.3111	-40.3292	-95.8256	-70.758	-67.2782	-90.0762	-34.9966	-53.9736	-86.3235	-54.6446	-80.968	-100.286	-80.0432	-84.6472	-115.455	-41.6308	-65.1928	-120.455	-71.4398	-71.0913	-136.328	-75.9729	-30.8036	-138.41	-44.3459	-61.6379	-142.309	-72.9817	-57.4976	-145.663	-68.9907	-23.8484	-157.223	-42.0695	-59.7752	-159.728	-69.661	-48.4156	-157.775	-59.408	-19.9197	-145.688	-14.0392	-9.16613	-163.027	-21.7939	16.948	-123.774	-28.9086	10.6826	
211	1.75833	-118.532	-51.1327	15.225	-99.7084	-55.3953	-11.6553	-88.8656	-56.3269	-41.1689	-94.3206	-54.9933	-62.7236	-93.1187	-14.8461	-50.9865	-89.7284	-28.8805	-77.8444	-99.8851	-60.491	-86.2602	-119.743	-21.451	-61.7877	-120.901	-52.3821	-71.6427	-136.804	-62.8914	-33.1822	-140.357	-30.0574	-62.0726	-144.739	-59.9137	-55.576	-146.512	-54.6604	-21.4282	-156.967	-30.6933	-58.808	-158.548	-55.0991	-49.886	-159.201	-50.4451	-20.2608	-153.308	-0.958859	-9.49407	-167.144	-11.3634	16.2879	-126.116	-16.0424	16.0386	
212	1.76667	-115.36	-37.4099	18.0122	-96.9832	-42.1833	-6.91499	-90.163	-35.7271	-39.0676	-94.8864	-33.564	-61.5685	-98.3397	6.17533	-45.216	-90.2883	-4.41643	-72.9191	-95.9414	-34.7659	-84.2907	-118.726	-0.93606	-54.1199	-124.55	-30.8156	-70.0378	-133.531	-47.4411	-34.403	-141.457	-8.36519	-56.1307	-143.665	-40.8085	-54.5443	-147.765	-42.4866	-24.8454	-160.298	-9.56253	-51.5091	-158.782	-38.5114	-49.5625	-164.762	-36.0001	-20.6899	-159.761	10.7723	-3.33573	-173.086	-1.13175	23.4561	-135.59	-3.19557	16.9475	
